<svg width="24" height="20" viewBox="0 0 24 20" fill="none" xmlns="http://www.w3.org/2000/svg" xmlns:xlink="http://www.w3.org/1999/xlink">
<path d="M9.738,19.262C9.622,19.149 9.126,18.722 8.718,18.324C6.152,15.994 1.952,9.915 0.67,6.734C0.464,6.25 0.028,5.029 0,4.376C0,3.751 0.144,3.154 0.436,2.585C0.844,1.876 1.486,1.307 2.244,0.996C2.77,0.795 4.344,0.483 4.372,0.483C6.094,0.171 8.892,0 11.984,0C14.93,0 17.614,0.171 19.362,0.427C19.39,0.456 21.346,0.768 22.016,1.109C23.24,1.734 24,2.956 24,4.263L24,4.376C23.97,5.227 23.21,7.018 23.182,7.018C21.898,10.028 17.904,15.967 15.25,18.354C15.25,18.354 14.568,19.026 14.142,19.318C13.53,19.774 12.772,20 12.014,20C11.168,20 10.38,19.745 9.738,19.262Z" fill="#24252C"/>
</svg>
