<svg width="36" height="24" viewBox="0 0 36 24" fill="none" xmlns="http://www.w3.org/2000/svg" xmlns:xlink="http://www.w3.org/1999/xlink">
<path d="M20.33,11.987L20.327,11.279C20.303,8.47 20.133,5.963 19.841,4.375C19.841,4.347 19.523,2.771 19.32,2.247C19.001,1.489 18.425,0.846 17.703,0.438C17.125,0.148 16.518,0 15.883,0C15.384,0.023 14.561,0.274 13.974,0.485L13.486,0.672C10.252,1.956 4.071,6.153 1.704,8.72L1.529,8.899L0.751,9.74C0.26,10.383 0,11.169 0,12.015C0,12.773 0.231,13.531 0.694,14.144C0.832,14.342 1.055,14.597 1.254,14.812L2.012,15.605C4.621,18.249 10.27,21.956 13.198,23.185C13.198,23.211 15.017,23.971 15.883,24L15.999,24C17.328,24 18.569,23.242 19.204,22.017C19.378,21.682 19.544,21.026 19.67,20.45L19.898,19.363C20.158,17.613 20.33,14.93 20.33,11.987ZM32.993,15.037C34.654,15.037 36,13.677 36,12.001C36,10.324 34.654,8.965 32.993,8.965L25.595,9.619C24.293,9.619 23.237,10.683 23.237,12.001C23.237,13.316 24.293,14.382 25.595,14.382L32.993,15.037Z" clip-rule="evenodd" fill-rule="evenodd" fill="#24252C"/>
</svg>
