<svg width="56" height="56" viewBox="0 0 56 56" fill="none" xmlns="http://www.w3.org/2000/svg" xmlns:xlink="http://www.w3.org/1999/xlink">
<circle cx="28" cy="28" r="24.5" fill="#105DFB"/>
<path d="M12.033,38.429L12.033,17.051L21.915,17.051C25.09,17.051 27.663,19.624 27.663,22.799C27.663,24.816 27.043,26.065 24.769,27.347C27.49,28.587 28.246,30.306 28.246,32.703C28.246,35.946 25.365,38.429 22.122,38.429L12.033,38.429ZM16.215,20.59L16.215,25.73L21.109,25.73C21.109,25.73 23.488,25.73 23.488,23.16C23.488,20.59 21.109,20.59 21.109,20.59L16.215,20.59ZM16.215,34.809L16.215,29.258L21.465,29.258C22.312,29.258 24.09,29.695 24.09,32.32C24.09,34.267 22.34,34.79 21.465,34.809L16.215,34.809Z" clip-rule="evenodd" fill-rule="evenodd" fill="#FFFFFF"/>
<path d="M37.187,22.941C34.18,22.941 29.722,25.102 29.722,30.844C29.722,34.34 31.637,38.828 37.379,38.828C41.973,38.828 44.087,35.456 44.57,33.77L40.25,33.77C40.031,34.535 39.183,35.383 37.379,35.383C34.754,35.383 33.824,33.141 33.687,32.02L44.57,32.02L44.57,30.844C44.57,25.102 40.195,22.941 37.187,22.941ZM37.187,26.223C34.737,26.223 33.833,28.246 33.687,29.258L40.25,29.258C40.25,28.246 39.637,26.223 37.187,26.223Z" clip-rule="evenodd" fill-rule="evenodd" fill="#FFFFFF"/>
<path d="M31.965,18.266L31.965,20.918L42.273,20.918L42.273,18.266L31.965,18.266Z" fill="#FFFFFF"/>
</svg>
