<svg width="50" height="50" viewBox="0 0 50 50" fill="none" xmlns="http://www.w3.org/2000/svg" xmlns:xlink="http://www.w3.org/1999/xlink">
<path d="M48.5,24C48.5,37.531 37.531,48.5 24,48.5C10.469,48.5 -0.5,37.531 -0.5,24C-0.5,10.469 10.469,-0.5 24,-0.5C37.531,-0.5 48.5,10.469 48.5,24ZM32.617,43.156C29.988,44.341 27.071,45 24,45C18.93,45 14.28,43.204 10.652,40.213C14.427,33.878 20.498,29.075 27.715,26.951C29.788,32.152 31.436,37.568 32.617,43.156ZM35.81,41.367C34.647,36.136 33.088,31.056 31.165,26.157C32.766,25.889 34.41,25.75 36.086,25.75C39.114,25.75 42.033,26.204 44.78,27.048C43.916,32.992 40.562,38.129 35.81,41.367ZM44.993,23.463C42.158,22.672 39.17,22.25 36.086,22.25C33.936,22.25 31.834,22.455 29.799,22.847C29.268,21.621 28.714,20.409 28.138,19.208C32.719,17.175 36.953,14.501 40.726,11.3C43.307,14.694 44.879,18.898 44.993,23.463ZM38.383,8.698C34.841,11.69 30.867,14.185 26.567,16.076C24.297,11.736 21.728,7.577 18.887,3.627C20.524,3.217 22.237,3 24,3C29.565,3 34.625,5.165 38.383,8.698ZM15.429,4.823C9.265,7.582 4.673,13.227 3.373,20.039C4.568,20.127 5.775,20.172 6.992,20.172C12.711,20.172 18.199,19.186 23.295,17.375C20.981,12.987 18.348,8.793 15.429,4.823ZM3.005,23.522C3.002,23.681 3,23.84 3,24C3,29.236 4.916,34.025 8.086,37.702C12.261,31.086 18.718,26.051 26.354,23.704C25.883,22.634 25.393,21.573 24.885,20.522C19.304,22.56 13.278,23.672 6.992,23.672C5.651,23.672 4.322,23.621 3.005,23.522Z" clip-rule="evenodd" fill-rule="evenodd" fill="#E84C88"/>
</svg>
