<svg width="72" height="62" viewBox="0 0 72 62" fill="none" xmlns="http://www.w3.org/2000/svg" xmlns:xlink="http://www.w3.org/1999/xlink">
<path d="M15.677,2.04L35.927,0L56.177,2.04L71.855,22.097L35.927,61.969L0,22.097L15.677,2.04Z" fill="#FDB300"/>
<path d="M14.552,22.097L35.927,61.969L0,22.097L14.552,22.097Z" fill="#EA6C00"/>
<path d="M50.48,22.097L71.855,61.969L35.927,22.097L50.48,22.097Z" transform="rotate(360 53.891 42.033)" fill="#EA6C00"/>
<path d="M14.552,22.097L57.302,22.097L35.927,61.969L14.552,22.097Z" fill="#FDAD00"/>
<path d="M35.927,0L15.677,2.04L14.552,22.097L35.927,0Z" fill="#FDD231"/>
<path d="M57.302,0L37.052,2.04L35.927,22.097L57.302,0Z" transform="rotate(360 46.615 11.049)" fill="#FDD231"/>
<path d="M56.177,22.097L71.855,2.04L70.73,22.097L56.177,22.097Z" transform="rotate(360 64.016 12.069)" fill="#FDAD00"/>
<path d="M0,22.097L15.677,2.04L14.552,22.097L0,22.097Z" fill="#FDAD00"/>
<path d="M35.927,0L14.552,22.097L57.302,22.097L35.927,0Z" fill="#FEEEB7"/>
</svg>
