<svg width="140" height="140" viewBox="0 0 140 140" fill="none" xmlns="http://www.w3.org/2000/svg" xmlns:xlink="http://www.w3.org/1999/xlink">
<path d="M69.995,131.24C110.833,131.24 131.24,103.82 131.24,69.995C131.24,36.17 110.833,8.75 69.995,8.75C29.157,8.75 8.75,36.17 8.75,69.995C8.75,103.82 29.157,131.24 69.995,131.24Z" fill="url(#pf_0_i_1_708;147_709;28268_2105)"/>
<path d="M69.995,131.24C110.833,131.24 131.24,103.82 131.24,69.995C131.24,36.17 110.833,8.75 69.995,8.75C29.157,8.75 8.75,36.17 8.75,69.995C8.75,103.82 29.157,131.24 69.995,131.24Z" fill="url(#pf_1_i_1_708;147_709;28268_2105)"/>
<path d="M69.995,131.24C110.833,131.24 131.24,103.82 131.24,69.995C131.24,36.17 110.833,8.75 69.995,8.75C29.157,8.75 8.75,36.17 8.75,69.995C8.75,103.82 29.157,131.24 69.995,131.24Z" fill="url(#pf_2_i_1_708;147_709;28268_2105)"/>
<path d="M69.995,131.24C110.833,131.24 131.24,103.82 131.24,69.995C131.24,36.17 110.833,8.75 69.995,8.75C29.157,8.75 8.75,36.17 8.75,69.995C8.75,103.82 29.157,131.24 69.995,131.24Z" fill="url(#pf_3_i_1_708;147_709;28268_2105)"/>
<path d="M69.995,131.24C110.833,131.24 131.24,103.82 131.24,69.995C131.24,36.17 110.833,8.75 69.995,8.75C29.157,8.75 8.75,36.17 8.75,69.995C8.75,103.82 29.157,131.24 69.995,131.24Z" fill="url(#pf_4_i_1_708;147_709;28268_2105)"/>
<path d="M69.995,131.24C110.833,131.24 131.24,103.82 131.24,69.995C131.24,36.17 110.833,8.75 69.995,8.75C29.157,8.75 8.75,36.17 8.75,69.995C8.75,103.82 29.157,131.24 69.995,131.24Z" fill="url(#pf_5_i_1_708;147_709;28268_2105)"/>
<path d="M69.995,131.24C110.833,131.24 131.24,103.82 131.24,69.995C131.24,36.17 110.833,8.75 69.995,8.75C29.157,8.75 8.75,36.17 8.75,69.995C8.75,103.82 29.157,131.24 69.995,131.24Z" fill="url(#pf_6_i_1_708;147_709;28268_2105)"/>
<path d="M69.995,131.24C110.833,131.24 131.24,103.82 131.24,69.995C131.24,36.17 110.833,8.75 69.995,8.75C29.157,8.75 8.75,36.17 8.75,69.995C8.75,103.82 29.157,131.24 69.995,131.24Z" fill="url(#pf_7_i_1_708;147_709;28268_2105)"/>
<path d="M70,109.375C30.625,109.375 30.625,70 30.625,70L109.375,70C109.375,70 109.375,109.375 70,109.375Z" fill="url(#pf_0_i_1_708;163_97;159_321)"/>
<path d="M35,74.563L35,70L105,70L105,74.563C105,75.667 104.105,76.563 103,76.563L37,76.563C35.895,76.563 35,75.667 35,74.563Z" fill="url(#pf_0_i_1_708;163_97;159_323)"/>
<path d="M45.938,67.813C45.938,67.813 32.812,65.625 23.844,55.275C14.699,44.72 23.236,29.607 39.375,37.188C46.275,25.934 63.395,30.096 61.119,43.75C58.93,56.875 45.938,67.813 45.938,67.813Z" fill="url(#pf_0_i_1_708;1603_7683)"/>
<path d="M95.839,67.813C95.839,67.813 82.713,65.625 73.745,55.275C64.599,44.72 73.137,29.607 89.276,37.188C96.175,25.934 113.296,30.096 111.019,43.75C108.831,56.875 95.839,67.813 95.839,67.813Z" transform="rotate(360 90.613 49.258)" fill="url(#pf_0_i_1_708;1603_7816)"/>
<path d="M48.454,63.037C44.554,62.04 35.107,58.921 28.157,50.9C19.012,40.345 27.549,25.232 43.688,32.813C50.588,21.559 67.708,25.721 65.432,39.375C63.68,49.883 55.002,58.989 51.612,62.203C50.762,63.008 49.589,63.327 48.454,63.037Z" fill="url(#pf_0_i_1_708;1603_7706)"/>
<path d="M98.417,63.037C94.517,62.04 85.07,58.921 78.12,50.9C68.974,40.345 77.512,25.232 93.651,32.813C100.55,21.559 117.671,25.721 115.394,39.375C113.642,49.883 104.965,58.989 101.575,62.203C100.724,63.008 99.551,63.327 98.417,63.037Z" transform="rotate(360 94.988 44.883)" fill="url(#pf_0_i_1_708;1603_7722)"/>
<path d="M47.827,40.734C47.827,47.983 44.889,53.859 41.265,53.859C37.641,53.859 34.702,47.983 34.702,40.734C34.702,33.485 37.641,27.609 41.265,27.609C44.889,27.609 47.827,33.485 47.827,40.734Z" transform="rotate(-90 41.265 40.734)" fill="url(#pf_0_i_1_708;1603_7648)"/>
<path d="M100.272,40.243C100.272,47.492 96.354,53.368 91.522,53.368C86.689,53.368 82.772,47.492 82.772,40.243C82.772,32.995 86.689,27.118 91.522,27.118C96.354,27.118 100.272,32.995 100.272,40.243Z" transform="rotate(-25.932 91.522 40.243)" fill="url(#pf_0_i_1_708;1603_7739)"/>
<circle cx="57.218" cy="33.354" r="6.563" transform="rotate(90 57.218 33.354)" fill="url(#pf_0_i_1_708;1603_7665)"/>
<path d="M110.999,37.729C110.999,42.562 109.04,46.479 106.624,46.479C104.208,46.479 102.249,42.562 102.249,37.729C102.249,32.897 104.208,28.979 106.624,28.979C109.04,28.979 110.999,32.897 110.999,37.729Z" transform="rotate(90 106.624 37.729)" fill="url(#pf_0_i_1_708;1603_7740)"/>
<defs>
<radialGradient id="pf_0_i_1_708;147_709;28268_2105" cx="0" cy="0" r="1" gradientUnits="userSpaceOnUse" gradientTransform="matrix(-55.781249 60.156242 -60.156242 -55.781249 55.781 19.688)">
<stop stop-color="#FFF478"/>
<stop offset="0.475" stop-color="#FFB02E"/>
<stop offset="1" stop-color="#F70A8D"/>
</radialGradient>
<radialGradient id="pf_1_i_1_708;147_709;28268_2105" cx="0" cy="0" r="1" gradientUnits="userSpaceOnUse" gradientTransform="matrix(-56.875006 63.437496 -63.437496 -56.875006 55.781 19.688)">
<stop stop-color="#FFF478"/>
<stop offset="0.475" stop-color="#FFB02E"/>
<stop offset="1" stop-color="#F70A8D"/>
</radialGradient>
<radialGradient id="pf_2_i_1_708;147_709;28268_2105" cx="0" cy="0" r="1" gradientUnits="userSpaceOnUse" gradientTransform="matrix(-7.656257 38.28125 -49.030995 -9.806208 35 27.344)">
<stop offset="0.788" stop-color="#F59639" stop-opacity="0"/>
<stop offset="0.973" stop-color="#FF7DCE"/>
</radialGradient>
<radialGradient id="pf_3_i_1_708;147_709;28268_2105" cx="0" cy="0" r="1" gradientUnits="userSpaceOnUse" gradientTransform="matrix(-63.437512 63.437512 -63.437512 -63.437512 39.375 30.625)">
<stop offset="0.315" stop-color="#000000" stop-opacity="0.6"/>
<stop offset="1" stop-color="#000000" stop-opacity="0.6"/>
</radialGradient>
<radialGradient id="pf_4_i_1_708;147_709;28268_2105" cx="0" cy="0" r="1" gradientUnits="userSpaceOnUse" gradientTransform="matrix(13.125002 60.156254 -60.156254 13.125002 35 37.188)">
<stop offset="0.508" stop-color="#7D6133" stop-opacity="0"/>
<stop offset="1" stop-color="#715B32"/>
</radialGradient>
<radialGradient id="pf_5_i_1_708;147_709;28268_2105" cx="0" cy="0" r="1" gradientUnits="userSpaceOnUse" gradientTransform="matrix(16.40625 24.0625 -17.441717 11.89208 36.094 36.094)">
<stop stop-color="#FFB849"/>
<stop offset="1" stop-color="#FFB847" stop-opacity="0"/>
</radialGradient>
<radialGradient id="pf_6_i_1_708;147_709;28268_2105" cx="0" cy="0" r="1" gradientUnits="userSpaceOnUse" gradientTransform="matrix(25.15625 4.375 -4.375 25.15625 44.844 39.375)">
<stop stop-color="#FFA64B"/>
<stop offset="0.9" stop-color="#FFAE46" stop-opacity="0"/>
</radialGradient>
<radialGradient id="pf_7_i_1_708;147_709;28268_2105" cx="0" cy="0" r="1" gradientUnits="userSpaceOnUse" gradientTransform="matrix(92.968762 89.687504 -89.687504 92.968762 38.281 32.813)">
<stop offset="0.185" stop-color="#000000" stop-opacity="0"/>
<stop offset="1" stop-color="#000000" stop-opacity="0.4"/>
</radialGradient>
<radialGradient id="pf_0_i_1_708;163_97;159_321" cx="0" cy="0" r="1" gradientUnits="userSpaceOnUse" gradientTransform="matrix(0 -24.0625 48.125 0 35 59.063)">
<stop stop-color="#F70A8D"/>
<stop offset="1" stop-color="#89029C"/>
</radialGradient>
<linearGradient id="pf_0_i_1_708;163_97;159_323" x1="70" y1="70" x2="70" y2="76.563" gradientUnits="userSpaceOnUse">
<stop stop-color="#ECCDFF"/>
<stop offset="1" stop-color="#FFFFFF"/>
</linearGradient>
<radialGradient id="pf_0_i_1_708;1603_7683" cx="0" cy="0" r="1" gradientUnits="userSpaceOnUse" gradientTransform="matrix(-26.249997 -12.03125 3.90157 -14.991544 30.625 30.625)">
<stop stop-color="#CC7521"/>
<stop offset="1" stop-color="#E6872B" stop-opacity="0"/>
</radialGradient>
<radialGradient id="pf_0_i_1_708;1603_7816" cx="0" cy="0" r="1" gradientUnits="userSpaceOnUse" gradientTransform="matrix(-5.46875 -8.750001 8.750001 -5.46875 43.75 25.195)">
<stop stop-color="#EC812A"/>
<stop offset="1" stop-color="#FBA84C" stop-opacity="0"/>
</radialGradient>
<linearGradient id="pf_0_i_1_708;1603_7706" x1="56.813" y1="30.625" x2="43.688" y2="61.25" gradientUnits="userSpaceOnUse">
<stop stop-color="#CA0B4A"/>
<stop offset="1" stop-color="#F70A8D"/>
</linearGradient>
<linearGradient id="pf_0_i_1_708;1603_7722" x1="105" y1="59.14" x2="83.125" y2="24.14" gradientUnits="userSpaceOnUse">
<stop stop-color="#CA0B4A"/>
<stop offset="1" stop-color="#F70A8D"/>
</linearGradient>
<radialGradient id="pf_0_i_1_708;1603_7648" cx="0" cy="0" r="1" gradientUnits="userSpaceOnUse" gradientTransform="matrix(4.797356 4.797356 -2.438364 2.438364 20.632 20.367)">
<stop stop-color="#EC6686"/>
<stop offset="1" stop-color="#EC6686" stop-opacity="0"/>
</radialGradient>
<radialGradient id="pf_0_i_1_708;1603_7739" cx="0" cy="0" r="1" gradientUnits="userSpaceOnUse" gradientTransform="matrix(2.1875 5.46875 -3.706153 1.482461 45.937 19.687)">
<stop stop-color="#EC6686"/>
<stop offset="0.26" stop-color="#EC6686"/>
<stop offset="1" stop-color="#EC6686" stop-opacity="0"/>
</radialGradient>
<radialGradient id="pf_0_i_1_708;1603_7665" cx="0" cy="0" r="1" gradientUnits="userSpaceOnUse" gradientTransform="matrix(0 3.28125 -3.28125 0 28.609 16.677)">
<stop stop-color="#EC6686"/>
<stop offset="1" stop-color="#EC6686" stop-opacity="0"/>
</radialGradient>
<radialGradient id="pf_0_i_1_708;1603_7740" cx="0" cy="0" r="1" gradientUnits="userSpaceOnUse" gradientTransform="matrix(-3.093592 3.093592 -1.546796 -1.546796 53.312 18.865)">
<stop stop-color="#EC6686"/>
<stop offset="1" stop-color="#EC6686" stop-opacity="0"/>
</radialGradient>
</defs>
</svg>
