<svg width="28" height="28" viewBox="0 0 28 28" fill="none" xmlns="http://www.w3.org/2000/svg" xmlns:xlink="http://www.w3.org/1999/xlink">
<path d="M24.605,8.143C23.613,7.047 21.957,6.498 19.553,6.498L19.273,6.498L19.273,6.452C19.273,4.492 19.273,2.065 14.887,2.065L13.113,2.065C8.727,2.065 8.727,4.503 8.727,6.452L8.727,6.51L8.447,6.51C6.032,6.51 4.387,7.058 3.395,8.155C2.24,9.438 2.275,11.165 2.392,12.343L2.403,12.425L2.475,13.177C2.503,13.476 2.665,13.747 2.917,13.911C3.193,14.089 3.55,14.315 3.78,14.443C3.943,14.548 4.118,14.642 4.293,14.735C6.288,15.832 8.482,16.567 10.71,16.928C10.815,18.025 11.293,19.308 13.848,19.308C16.403,19.308 16.905,18.037 16.987,16.905C19.367,16.52 21.665,15.692 23.742,14.478C23.812,14.443 23.858,14.408 23.917,14.373C24.332,14.139 24.761,13.855 25.161,13.571C25.381,13.415 25.52,13.171 25.55,12.903L25.55,12.903L25.608,12.355C25.62,12.285 25.62,12.227 25.632,12.145C25.725,10.967 25.702,9.357 24.605,8.143ZM15.272,16.135C15.272,17.372 15.272,17.558 13.837,17.558C12.402,17.558 12.402,17.337 12.402,16.147L12.402,14.677L15.272,14.677L15.272,16.135ZM10.395,6.498L10.395,6.452C10.395,4.468 10.395,3.733 13.113,3.733L14.887,3.733C17.605,3.733 17.605,4.48 17.605,6.452L17.605,6.51L10.395,6.51L10.395,6.498Z" fill="#F478B8"/>
<path d="M23.676,16.341C24.386,16.011 25.202,16.573 25.131,17.353L24.78,21.222C24.535,23.555 23.578,25.935 18.445,25.935L9.555,25.935C4.422,25.935 3.465,23.555 3.22,21.233L2.889,17.588C2.818,16.817 3.615,16.256 4.323,16.568C5.624,17.143 7.452,17.909 8.737,18.276C9.063,18.369 9.327,18.607 9.489,18.906C10.236,20.289 11.732,21.023 13.848,21.023C15.944,21.023 17.456,20.261 18.208,18.871C18.369,18.572 18.633,18.335 18.96,18.24C20.333,17.844 22.3,16.98 23.676,16.341Z" fill="#F478B8"/>
</svg>
