<svg width="48" height="48" viewBox="0 0 48 48" fill="none" xmlns="http://www.w3.org/2000/svg" xmlns:xlink="http://www.w3.org/1999/xlink">
<path d="M38.68,28.98L36.68,25.66C36.26,24.92 35.88,23.52 35.88,22.7L35.88,17.64C35.88,12.94 33.12,8.88 29.14,6.98C28.1,5.14 26.18,4 23.98,4C21.8,4 19.84,5.18 18.8,7.04C14.9,8.98 12.2,13 12.2,17.64L12.2,22.7C12.2,23.52 11.82,24.92 11.4,25.64L9.38,28.98C8.58,30.32 8.4,31.8 8.9,33.16C9.38,34.5 10.52,35.54 12,36.04C15.88,37.36 19.96,38 24.04,38C28.12,38 32.2,37.36 36.08,36.06C37.48,35.6 38.56,34.54 39.08,33.16C39.6,31.78 39.46,30.26 38.68,28.98Z" fill="#24252C"/>
<path d="M29.66,40.02C28.82,42.34 26.6,44 24,44C22.42,44 20.86,43.36 19.76,42.22C19.12,41.62 18.64,40.82 18.36,40C18.62,40.04 18.88,40.06 19.16,40.1C19.62,40.16 20.1,40.22 20.58,40.26C21.72,40.36 22.88,40.42 24.04,40.42C25.18,40.42 26.32,40.36 27.44,40.26C27.86,40.22 28.28,40.2 28.68,40.14C29,40.1 29.32,40.06 29.66,40.02Z" fill="#24252C"/>
<circle cx="34" cy="8" r="8" fill="#5F33E1"/>
</svg>
